<?xml version="1.0" encoding="UTF-8"?>
<svg xmlns="http://www.w3.org/2000/svg" xmlns:xlink="http://www.w3.org/1999/xlink" width="4800" height="3300" viewBox="0 0 4800 3300">
<defs>
<radialGradient id="radial-pattern-0" gradientUnits="userSpaceOnUse" cx="0" cy="0" fx="0" fy="0" r="3749.97" gradientTransform="matrix(1, 0, 0, 1, 2400, 1650)">
<stop offset="0" stop-color="rgb(99.983215%, 100%, 100%)" stop-opacity="1"/>
<stop offset="0.125" stop-color="rgb(99.813843%, 100%, 100%)" stop-opacity="1"/>
<stop offset="0.234375" stop-color="rgb(99.49646%, 100%, 100%)" stop-opacity="1"/>
<stop offset="0.28125" stop-color="rgb(99.238586%, 100%, 100%)" stop-opacity="1"/>
<stop offset="0.300781" stop-color="rgb(99.031067%, 100%, 100%)" stop-opacity="1"/>
<stop offset="0.320312" stop-color="rgb(98.7854%, 100%, 100%)" stop-opacity="1"/>
<stop offset="0.339844" stop-color="rgb(98.497009%, 100%, 100%)" stop-opacity="1"/>
<stop offset="0.359375" stop-color="rgb(98.15979%, 100%, 100%)" stop-opacity="1"/>
<stop offset="0.378906" stop-color="rgb(97.814941%, 100%, 100%)" stop-opacity="1"/>
<stop offset="0.394531" stop-color="rgb(97.468567%, 100%, 100%)" stop-opacity="1"/>
<stop offset="0.410156" stop-color="rgb(97.187805%, 100%, 100%)" stop-opacity="1"/>
<stop offset="0.417969" stop-color="rgb(96.984863%, 100%, 100%)" stop-opacity="1"/>
<stop offset="0.425781" stop-color="rgb(96.77124%, 100%, 100%)" stop-opacity="1"/>
<stop offset="0.433594" stop-color="rgb(96.548462%, 100%, 100%)" stop-opacity="1"/>
<stop offset="0.441406" stop-color="rgb(96.313477%, 100%, 100%)" stop-opacity="1"/>
<stop offset="0.449219" stop-color="rgb(96.066284%, 100%, 100%)" stop-opacity="1"/>
<stop offset="0.457031" stop-color="rgb(95.808411%, 100%, 100%)" stop-opacity="1"/>
<stop offset="0.464844" stop-color="rgb(95.53833%, 100%, 100%)" stop-opacity="1"/>
<stop offset="0.472656" stop-color="rgb(95.254517%, 100%, 100%)" stop-opacity="1"/>
<stop offset="0.480469" stop-color="rgb(94.958496%, 100%, 100%)" stop-opacity="1"/>
<stop offset="0.488281" stop-color="rgb(94.648743%, 100%, 100%)" stop-opacity="1"/>
<stop offset="0.496094" stop-color="rgb(94.326782%, 100%, 100%)" stop-opacity="1"/>
<stop offset="0.503906" stop-color="rgb(94.076538%, 100%, 100%)" stop-opacity="1"/>
<stop offset="0.507812" stop-color="rgb(93.904114%, 100%, 100%)" stop-opacity="1"/>
<stop offset="0.511719" stop-color="rgb(93.728638%, 100%, 100%)" stop-opacity="1"/>
<stop offset="0.515625" stop-color="rgb(93.548584%, 100%, 100%)" stop-opacity="1"/>
<stop offset="0.519531" stop-color="rgb(93.365479%, 100%, 100%)" stop-opacity="1"/>
<stop offset="0.523438" stop-color="rgb(93.179321%, 100%, 100%)" stop-opacity="1"/>
<stop offset="0.527344" stop-color="rgb(92.988586%, 100%, 100%)" stop-opacity="1"/>
<stop offset="0.53125" stop-color="rgb(92.793274%, 100%, 100%)" stop-opacity="1"/>
<stop offset="0.535156" stop-color="rgb(92.59491%, 100%, 100%)" stop-opacity="1"/>
<stop offset="0.539062" stop-color="rgb(92.393494%, 100%, 100%)" stop-opacity="1"/>
<stop offset="0.542969" stop-color="rgb(92.185974%, 100%, 100%)" stop-opacity="1"/>
<stop offset="0.546875" stop-color="rgb(91.975403%, 100%, 100%)" stop-opacity="1"/>
<stop offset="0.550781" stop-color="rgb(91.76178%, 100%, 100%)" stop-opacity="1"/>
<stop offset="0.554688" stop-color="rgb(91.542053%, 100%, 100%)" stop-opacity="1"/>
<stop offset="0.558594" stop-color="rgb(91.319275%, 100%, 100%)" stop-opacity="1"/>
<stop offset="0.5625" stop-color="rgb(91.091919%, 100%, 100%)" stop-opacity="1"/>
<stop offset="0.566406" stop-color="rgb(90.859985%, 100%, 100%)" stop-opacity="1"/>
<stop offset="0.570312" stop-color="rgb(90.625%, 100%, 100%)" stop-opacity="1"/>
<stop offset="0.574219" stop-color="rgb(90.383911%, 100%, 100%)" stop-opacity="1"/>
<stop offset="0.578125" stop-color="rgb(90.139771%, 100%, 100%)" stop-opacity="1"/>
<stop offset="0.582031" stop-color="rgb(89.889526%, 100%, 100%)" stop-opacity="1"/>
<stop offset="0.585938" stop-color="rgb(89.63623%, 100%, 100%)" stop-opacity="1"/>
<stop offset="0.589844" stop-color="rgb(89.376831%, 100%, 100%)" stop-opacity="1"/>
<stop offset="0.59375" stop-color="rgb(89.112854%, 100%, 100%)" stop-opacity="1"/>
<stop offset="0.597656" stop-color="rgb(88.844299%, 100%, 100%)" stop-opacity="1"/>
<stop offset="0.601562" stop-color="rgb(88.571167%, 100%, 100%)" stop-opacity="1"/>
<stop offset="0.605469" stop-color="rgb(88.293457%, 100%, 100%)" stop-opacity="1"/>
<stop offset="0.609375" stop-color="rgb(88.011169%, 100%, 100%)" stop-opacity="1"/>
<stop offset="0.613281" stop-color="rgb(87.724304%, 100%, 100%)" stop-opacity="1"/>
<stop offset="0.617188" stop-color="rgb(87.431335%, 100%, 100%)" stop-opacity="1"/>
<stop offset="0.621094" stop-color="rgb(87.132263%, 100%, 100%)" stop-opacity="1"/>
<stop offset="0.625" stop-color="rgb(86.830139%, 100%, 100%)" stop-opacity="1"/>
<stop offset="0.628906" stop-color="rgb(86.521912%, 100%, 100%)" stop-opacity="1"/>
<stop offset="0.632812" stop-color="rgb(86.209106%, 100%, 100%)" stop-opacity="1"/>
<stop offset="0.636719" stop-color="rgb(85.890198%, 100%, 100%)" stop-opacity="1"/>
<stop offset="0.640625" stop-color="rgb(85.566711%, 100%, 100%)" stop-opacity="1"/>
<stop offset="0.644531" stop-color="rgb(85.237122%, 100%, 100%)" stop-opacity="1"/>
<stop offset="0.648438" stop-color="rgb(84.901428%, 100%, 100%)" stop-opacity="1"/>
<stop offset="0.652344" stop-color="rgb(84.561157%, 100%, 100%)" stop-opacity="1"/>
<stop offset="0.65625" stop-color="rgb(84.216309%, 100%, 100%)" stop-opacity="1"/>
<stop offset="0.660156" stop-color="rgb(83.863831%, 100%, 100%)" stop-opacity="1"/>
<stop offset="0.664062" stop-color="rgb(83.506775%, 100%, 100%)" stop-opacity="1"/>
<stop offset="0.667969" stop-color="rgb(83.143616%, 100%, 100%)" stop-opacity="1"/>
<stop offset="0.671875" stop-color="rgb(82.774353%, 100%, 100%)" stop-opacity="1"/>
<stop offset="0.675781" stop-color="rgb(82.400513%, 100%, 100%)" stop-opacity="1"/>
<stop offset="0.679688" stop-color="rgb(82.019043%, 100%, 100%)" stop-opacity="1"/>
<stop offset="0.683594" stop-color="rgb(81.632996%, 100%, 100%)" stop-opacity="1"/>
<stop offset="0.6875" stop-color="rgb(81.240845%, 100%, 100%)" stop-opacity="1"/>
<stop offset="0.691406" stop-color="rgb(80.841064%, 100%, 100%)" stop-opacity="1"/>
<stop offset="0.695312" stop-color="rgb(80.436707%, 100%, 100%)" stop-opacity="1"/>
<stop offset="0.699219" stop-color="rgb(80.024719%, 100%, 100%)" stop-opacity="1"/>
<stop offset="0.703125" stop-color="rgb(79.608154%, 100%, 100%)" stop-opacity="1"/>
<stop offset="0.707031" stop-color="rgb(79.18396%, 100%, 100%)" stop-opacity="1"/>
<stop offset="0.710938" stop-color="rgb(78.753662%, 100%, 100%)" stop-opacity="1"/>
<stop offset="0.714844" stop-color="rgb(78.317261%, 100%, 100%)" stop-opacity="1"/>
<stop offset="0.71875" stop-color="rgb(77.87323%, 100%, 100%)" stop-opacity="1"/>
<stop offset="0.722656" stop-color="rgb(77.424622%, 100%, 100%)" stop-opacity="1"/>
<stop offset="0.726562" stop-color="rgb(76.968384%, 100%, 100%)" stop-opacity="1"/>
<stop offset="0.730469" stop-color="rgb(76.504517%, 100%, 100%)" stop-opacity="1"/>
<stop offset="0.734375" stop-color="rgb(76.034546%, 100%, 100%)" stop-opacity="1"/>
<stop offset="0.738281" stop-color="rgb(75.558472%, 100%, 100%)" stop-opacity="1"/>
<stop offset="0.742188" stop-color="rgb(75.074768%, 100%, 100%)" stop-opacity="1"/>
<stop offset="0.746094" stop-color="rgb(74.583435%, 100%, 100%)" stop-opacity="1"/>
<stop offset="0.75" stop-color="rgb(74.085999%, 100%, 100%)" stop-opacity="1"/>
<stop offset="0.753906" stop-color="rgb(73.580933%, 100%, 100%)" stop-opacity="1"/>
<stop offset="0.757812" stop-color="rgb(73.069763%, 100%, 100%)" stop-opacity="1"/>
<stop offset="0.761719" stop-color="rgb(72.549438%, 100%, 100%)" stop-opacity="1"/>
<stop offset="0.765625" stop-color="rgb(72.02301%, 100%, 100%)" stop-opacity="1"/>
<stop offset="0.769531" stop-color="rgb(71.490479%, 100%, 100%)" stop-opacity="1"/>
<stop offset="0.773438" stop-color="rgb(70.948792%, 100%, 100%)" stop-opacity="1"/>
<stop offset="0.777344" stop-color="rgb(70.401001%, 100%, 100%)" stop-opacity="1"/>
<stop offset="0.78125" stop-color="rgb(69.844055%, 100%, 100%)" stop-opacity="1"/>
<stop offset="0.785156" stop-color="rgb(69.281006%, 100%, 100%)" stop-opacity="1"/>
<stop offset="0.789062" stop-color="rgb(68.708801%, 100%, 100%)" stop-opacity="1"/>
<stop offset="0.792969" stop-color="rgb(68.128967%, 100%, 100%)" stop-opacity="1"/>
<stop offset="0.796875" stop-color="rgb(67.541504%, 100%, 100%)" stop-opacity="1"/>
<stop offset="0.800781" stop-color="rgb(66.947937%, 100%, 100%)" stop-opacity="1"/>
<stop offset="0.804688" stop-color="rgb(66.345215%, 100%, 100%)" stop-opacity="1"/>
<stop offset="0.808594" stop-color="rgb(65.733337%, 100%, 100%)" stop-opacity="1"/>
<stop offset="0.8125" stop-color="rgb(65.115356%, 100%, 100%)" stop-opacity="1"/>
<stop offset="0.816406" stop-color="rgb(64.48822%, 100%, 100%)" stop-opacity="1"/>
<stop offset="0.820312" stop-color="rgb(63.851929%, 100%, 100%)" stop-opacity="1"/>
<stop offset="0.824219" stop-color="rgb(63.209534%, 100%, 100%)" stop-opacity="1"/>
<stop offset="0.828125" stop-color="rgb(62.557983%, 100%, 100%)" stop-opacity="1"/>
<stop offset="0.832031" stop-color="rgb(61.897278%, 100%, 100%)" stop-opacity="1"/>
<stop offset="0.835938" stop-color="rgb(61.227417%, 100%, 100%)" stop-opacity="1"/>
<stop offset="0.839844" stop-color="rgb(60.551453%, 100%, 100%)" stop-opacity="1"/>
<stop offset="0.84375" stop-color="rgb(59.864807%, 100%, 100%)" stop-opacity="1"/>
<stop offset="0.847656" stop-color="rgb(59.170532%, 100%, 100%)" stop-opacity="1"/>
<stop offset="0.851562" stop-color="rgb(58.467102%, 100%, 100%)" stop-opacity="1"/>
<stop offset="0.855469" stop-color="rgb(57.756042%, 100%, 100%)" stop-opacity="1"/>
<stop offset="0.859375" stop-color="rgb(57.034302%, 100%, 100%)" stop-opacity="1"/>
<stop offset="0.863281" stop-color="rgb(56.303406%, 100%, 100%)" stop-opacity="1"/>
<stop offset="0.867188" stop-color="rgb(55.56488%, 100%, 100%)" stop-opacity="1"/>
<stop offset="0.871094" stop-color="rgb(54.8172%, 100%, 100%)" stop-opacity="1"/>
<stop offset="0.875" stop-color="rgb(54.060364%, 100%, 100%)" stop-opacity="1"/>
<stop offset="0.878906" stop-color="rgb(53.292847%, 100%, 100%)" stop-opacity="1"/>
<stop offset="0.882812" stop-color="rgb(52.5177%, 100%, 100%)" stop-opacity="1"/>
<stop offset="0.886719" stop-color="rgb(51.731873%, 100%, 100%)" stop-opacity="1"/>
<stop offset="0.890625" stop-color="rgb(50.938416%, 100%, 100%)" stop-opacity="1"/>
<stop offset="0.894531" stop-color="rgb(50.132751%, 100%, 100%)" stop-opacity="1"/>
<stop offset="0.898438" stop-color="rgb(49.319458%, 100%, 100%)" stop-opacity="1"/>
<stop offset="0.902344" stop-color="rgb(48.495483%, 100%, 100%)" stop-opacity="1"/>
<stop offset="0.90625" stop-color="rgb(47.662354%, 100%, 100%)" stop-opacity="1"/>
<stop offset="0.910156" stop-color="rgb(46.820068%, 100%, 100%)" stop-opacity="1"/>
<stop offset="0.914062" stop-color="rgb(45.967102%, 100%, 100%)" stop-opacity="1"/>
<stop offset="0.917969" stop-color="rgb(45.103455%, 100%, 100%)" stop-opacity="1"/>
<stop offset="0.921875" stop-color="rgb(44.230652%, 100%, 100%)" stop-opacity="1"/>
<stop offset="0.925781" stop-color="rgb(43.348694%, 100%, 100%)" stop-opacity="1"/>
<stop offset="0.929688" stop-color="rgb(42.454529%, 100%, 100%)" stop-opacity="1"/>
<stop offset="0.933594" stop-color="rgb(41.551208%, 100%, 100%)" stop-opacity="1"/>
<stop offset="0.9375" stop-color="rgb(40.637207%, 100%, 100%)" stop-opacity="1"/>
<stop offset="0.941406" stop-color="rgb(39.712524%, 100%, 100%)" stop-opacity="1"/>
<stop offset="0.945312" stop-color="rgb(38.778687%, 100%, 100%)" stop-opacity="1"/>
<stop offset="0.949219" stop-color="rgb(37.832642%, 100%, 100%)" stop-opacity="1"/>
<stop offset="0.953125" stop-color="rgb(36.877441%, 100%, 100%)" stop-opacity="1"/>
<stop offset="0.957031" stop-color="rgb(35.910034%, 100%, 100%)" stop-opacity="1"/>
<stop offset="0.960938" stop-color="rgb(34.933472%, 100%, 100%)" stop-opacity="1"/>
<stop offset="0.964844" stop-color="rgb(33.944702%, 100%, 100%)" stop-opacity="1"/>
<stop offset="0.96875" stop-color="rgb(32.945251%, 100%, 100%)" stop-opacity="1"/>
<stop offset="0.972656" stop-color="rgb(31.93512%, 100%, 100%)" stop-opacity="1"/>
<stop offset="0.976562" stop-color="rgb(30.914307%, 100%, 100%)" stop-opacity="1"/>
<stop offset="0.980469" stop-color="rgb(29.881287%, 100%, 100%)" stop-opacity="1"/>
<stop offset="0.984375" stop-color="rgb(28.837585%, 100%, 100%)" stop-opacity="1"/>
<stop offset="0.988281" stop-color="rgb(27.783203%, 100%, 100%)" stop-opacity="1"/>
<stop offset="0.992188" stop-color="rgb(26.716614%, 100%, 100%)" stop-opacity="1"/>
<stop offset="0.996094" stop-color="rgb(25.639343%, 100%, 100%)" stop-opacity="1"/>
<stop offset="1" stop-color="rgb(25.097656%, 100%, 100%)" stop-opacity="1"/>
</radialGradient>
</defs>
<rect x="-480" y="-330" width="5760" height="3960" fill="url(#radial-pattern-0)"/>
<path fill-rule="nonzero" fill="rgb(27.830505%, 25.87738%, 100%)" fill-opacity="1" d="M 1500.210938 2614.71875 C 1500.210938 2614.71875 1518.269531 2584.710938 1557.761719 2547.328125 L 1547.621094 2510.308594 C 1529.300781 2543.429688 1513.199219 2578.050781 1500.210938 2614.71875 "/>
<path fill-rule="nonzero" fill="rgb(29.026794%, 30.979919%, 96.09375%)" fill-opacity="1" d="M 1643.289062 2375.429688 C 1606.519531 2416.949219 1574.429688 2461.839844 1547.621094 2510.308594 L 1557.761719 2547.328125 C 1561.429688 2543.859375 1565.011719 2540.410156 1569.050781 2536.828125 L 1735.53125 2536.828125 L 1827.941406 2450.429688 L 1643.289062 2375.429688 "/>
<path fill-rule="nonzero" fill="rgb(34.910583%, 27.830505%, 100%)" fill-opacity="1" d="M 1386.148438 2386.390625 L 1386.160156 2386.378906 C 1378.421875 2363.480469 1371.449219 2339.511719 1365.71875 2314.820312 L 1341.421875 2314.820312 C 1354.171875 2338.179688 1368.960938 2362.03125 1386.148438 2386.390625 "/>
<path fill-rule="nonzero" fill="rgb(18.821716%, 30.589294%, 99.609375%)" fill-opacity="1" d="M 1735.53125 2536.828125 L 1957.308594 2536.828125 L 1827.941406 2450.429688 Z M 1735.53125 2536.828125 "/>
<path fill-rule="nonzero" fill="rgb(34.910583%, 26.660156%, 97.65625%)" fill-opacity="1" d="M 1277.390625 2093.738281 C 1279.238281 2161.101562 1297.820312 2234.949219 1341.421875 2314.820312 L 1365.71875 2314.820312 C 1355.96875 2272.820312 1349.851562 2228.699219 1349.851562 2184.03125 C 1349.121094 2165.410156 1350.640625 2147.589844 1353.800781 2130.351562 L 1298.800781 2058.019531 L 1277.390625 2093.738281 "/>
<path fill-rule="nonzero" fill="rgb(29.80957%, 29.417419%, 89.84375%)" fill-opacity="1" d="M 1785.019531 2245.96875 C 1732.761719 2285.261719 1685.089844 2328.21875 1643.289062 2375.429688 L 1827.941406 2450.429688 L 1785.019531 2245.96875 "/>
<path fill-rule="nonzero" fill="rgb(9.423828%, 38.035583%, 98.826599%)" fill-opacity="1" d="M 1827.941406 2450.429688 L 1957.308594 2536.828125 L 2064.988281 2536.828125 L 2064.988281 2472.261719 L 1827.941406 2450.429688 "/>
<path fill-rule="nonzero" fill="rgb(30.200195%, 37.255859%, 100%)" fill-opacity="1" d="M 2064.988281 2132.859375 L 2064.988281 2083.449219 C 1963.421875 2129.738281 1868.460938 2183.238281 1785.019531 2245.96875 L 1827.941406 2450.429688 L 2064.988281 2132.859375 "/>
<path fill-rule="nonzero" fill="rgb(43.530273%, 27.830505%, 100%)" fill-opacity="1" d="M 1465.410156 1714.609375 C 1394.371094 1777.269531 1307.140625 1878.761719 1283.378906 2012.351562 L 1298.800781 2058.019531 L 1465.410156 1714.609375 "/>
<path fill-rule="nonzero" fill="rgb(42.747498%, 34.521484%, 96.09375%)" fill-opacity="1" d="M 1353.800781 2130.351562 C 1359.300781 2100.398438 1370.410156 2072.46875 1386.421875 2046.390625 L 1298.800781 2058.019531 L 1353.800781 2130.351562 "/>
<path fill-rule="nonzero" fill="rgb(13.719177%, 35.693359%, 94.139099%)" fill-opacity="1" d="M 2064.988281 2472.261719 L 2064.988281 2132.859375 L 1827.941406 2450.429688 Z M 2064.988281 2472.261719 "/>
<path fill-rule="nonzero" fill="rgb(29.80957%, 29.417419%, 89.84375%)" fill-opacity="1" d="M 1465.410156 1714.609375 L 1298.800781 2058.019531 L 1386.421875 2046.390625 C 1431.539062 1972.878906 1515.148438 1913.929688 1619.410156 1865.261719 L 1480.929688 1701.269531 C 1475.871094 1705.488281 1470.679688 1709.960938 1465.410156 1714.609375 "/>
<path fill-rule="nonzero" fill="rgb(31.762695%, 33.325195%, 96.484375%)" fill-opacity="1" d="M 1760.699219 1808.910156 C 1807.949219 1792.640625 1857.21875 1777.699219 1907.460938 1763.859375 L 1790.140625 1602.140625 L 1760.699219 1808.910156 "/>
<path fill-rule="nonzero" fill="rgb(29.80957%, 29.417419%, 89.84375%)" fill-opacity="1" d="M 1497.320312 1687.980469 C 1492.03125 1692.140625 1486.558594 1696.570312 1480.929688 1701.269531 L 1619.410156 1865.261719 C 1663.320312 1844.769531 1710.839844 1826.078125 1760.699219 1808.910156 L 1790.140625 1602.140625 L 1497.320312 1687.980469 "/>
<path fill-rule="nonzero" fill="rgb(26.660156%, 33.714294%, 87.889099%)" fill-opacity="1" d="M 1907.460938 1763.859375 C 1969.601562 1746.730469 2033.128906 1731.21875 2095.949219 1716.859375 L 1790.140625 1602.140625 L 1907.460938 1763.859375 "/>
<path fill-rule="nonzero" fill="rgb(14.892578%, 45.872498%, 92.576599%)" fill-opacity="1" d="M 2174.828125 2036.910156 L 2400.660156 2036.910156 L 2345.640625 1975.820312 C 2287.929688 1994.648438 2230.730469 2014.878906 2174.828125 2036.910156 "/>
<path fill-rule="nonzero" fill="rgb(53.318787%, 23.535156%, 95.701599%)" fill-opacity="1" d="M 1591.71875 1377.070312 L 1541.269531 1514.480469 L 1541.269531 1655.960938 C 1529.808594 1663.609375 1514.609375 1674.359375 1497.320312 1687.980469 L 1790.140625 1602.140625 L 1591.71875 1377.070312 "/>
<path fill-rule="nonzero" fill="rgb(52.146912%, 23.925781%, 96.484375%)" fill-opacity="1" d="M 1541.269531 1368.460938 L 1541.269531 1514.480469 L 1591.71875 1377.070312 Z M 1541.269531 1368.460938 "/>
<path fill-rule="nonzero" fill="rgb(65.818787%, 39.208984%, 87.5%)" fill-opacity="1" d="M 1591.71875 1377.070312 L 1790.140625 1602.140625 L 2095.949219 1716.859375 C 2102.621094 1715.339844 2109.28125 1713.820312 2115.921875 1712.320312 L 2074.308594 1595.179688 L 2064.988281 1595.179688 L 2064.988281 1568.929688 L 1991.71875 1362.648438 L 1591.71875 1377.070312 "/>
<path fill-rule="nonzero" fill="rgb(24.31488%, 61.914062%, 85.9375%)" fill-opacity="1" d="M 2345.640625 1975.820312 L 2400.660156 2036.910156 L 2440.601562 2036.910156 C 2442.570312 2036.890625 2444.441406 2036.761719 2446.398438 2036.730469 L 2486.371094 1932.730469 C 2439.390625 1946.300781 2392.359375 1960.558594 2345.640625 1975.820312 "/>
<path fill-rule="nonzero" fill="rgb(34.910583%, 49.414062%, 81.25%)" fill-opacity="1" d="M 2064.988281 1568.929688 L 2064.988281 1386.980469 L 1991.71875 1362.648438 Z M 2064.988281 1568.929688 "/>
<path fill-rule="nonzero" fill="rgb(34.910583%, 49.414062%, 81.25%)" fill-opacity="1" d="M 2128.148438 1709.578125 L 2178.359375 1595.179688 L 2074.308594 1595.179688 L 2115.921875 1712.320312 C 2120.011719 1711.398438 2124.070312 1710.488281 2128.148438 1709.578125 "/>
<path fill-rule="nonzero" fill="rgb(14.892578%, 45.872498%, 92.576599%)" fill-opacity="1" d="M 2523.511719 1621.101562 L 2477.808594 1592.558594 C 2465.941406 1594.191406 2453.609375 1595.179688 2440.601562 1595.179688 L 2178.359375 1595.179688 L 2128.148438 1709.578125 C 2275.578125 1676.578125 2416.789062 1649.328125 2523.511719 1621.101562 "/>
<path fill-rule="nonzero" fill="rgb(7.835388%, 70.896912%, 92.1875%)" fill-opacity="1" d="M 2785.421875 1913.75 L 2519.960938 2033.179688 C 2615.398438 2025.730469 2700.589844 2006.78125 2775.480469 1977.949219 L 2785.421875 1913.75 "/>
<path fill-rule="nonzero" fill="rgb(12.547302%, 78.90625%, 90.234375%)" fill-opacity="1" d="M 2746.171875 1863.289062 C 2661.601562 1884.589844 2574.140625 1907.378906 2486.371094 1932.730469 L 2446.398438 2036.730469 C 2471.609375 2036.339844 2496.039062 2035.039062 2519.960938 2033.179688 L 2785.421875 1913.75 L 2746.171875 1863.289062 "/>
<path fill-rule="nonzero" fill="rgb(2.745056%, 80.076599%, 93.359375%)" fill-opacity="1" d="M 2775.480469 1977.949219 C 2785.949219 1973.921875 2796.320312 1969.78125 2806.390625 1965.371094 L 2785.421875 1913.75 L 2775.480469 1977.949219 "/>
<path fill-rule="nonzero" fill="rgb(7.446289%, 95.3125%, 96.09375%)" fill-opacity="1" d="M 2806.390625 1965.371094 C 2824.871094 1957.28125 2842.570312 1948.46875 2859.691406 1939.140625 L 2785.421875 1913.75 L 2806.390625 1965.371094 "/>
<path fill-rule="nonzero" fill="rgb(11.376953%, 94.921875%, 49.414062%)" fill-opacity="1" d="M 2989.910156 1802.148438 C 2913.480469 1821.859375 2831.308594 1841.859375 2746.171875 1863.289062 L 2785.421875 1913.75 L 2989.910156 1802.148438 "/>
<path fill-rule="nonzero" fill="rgb(21.972656%, 75.78125%, 65.429688%)" fill-opacity="1" d="M 2662.640625 1572.871094 L 2712.230469 1511.421875 C 2710.691406 1492.320312 2703.039062 1475.898438 2690.550781 1461.578125 L 2644.121094 1459.988281 C 2618.800781 1528.710938 2563.171875 1580.828125 2477.808594 1592.558594 L 2523.511719 1621.101562 C 2581.738281 1605.699219 2629.578125 1589.980469 2662.640625 1572.871094 "/>
<path fill-rule="nonzero" fill="rgb(9.423828%, 81.25%, 69.334412%)" fill-opacity="1" d="M 2712.78125 1518.410156 C 2712.78125 1516 2712.421875 1513.738281 2712.230469 1511.421875 L 2662.640625 1572.871094 C 2694.570312 1556.351562 2712.78125 1538.539062 2712.78125 1518.410156 "/>
<path fill-rule="nonzero" fill="rgb(12.939453%, 87.5%, 97.65625%)" fill-opacity="1" d="M 2859.691406 1939.140625 C 2933.21875 1899.089844 2994.460938 1848.148438 3042.96875 1788.261719 C 3025.640625 1792.878906 3007.898438 1797.511719 2989.910156 1802.148438 L 2785.421875 1913.75 L 2859.691406 1939.140625 "/>
<path fill-rule="nonzero" fill="rgb(7.054138%, 95.701599%, 95.3125%)" fill-opacity="1" d="M 3061.25 1320.070312 C 3068.03125 1321.660156 3074.75 1323.300781 3081.488281 1324.929688 L 3081.488281 1310.710938 L 3061.25 1320.070312 "/>
<path fill-rule="nonzero" fill="rgb(52.929688%, 100%, 61.914062%)" fill-opacity="1" d="M 3081.488281 1324.929688 C 3086.039062 1326.03125 3090.628906 1327.101562 3095.160156 1328.210938 L 3081.488281 1310.710938 L 3081.488281 1324.929688 "/>
<path fill-rule="nonzero" fill="rgb(41.575623%, 100%, 30.589294%)" fill-opacity="1" d="M 3437.878906 1476.878906 C 3436.289062 1474.300781 3434.390625 1472.050781 3432.738281 1469.519531 L 3431.949219 1470.691406 C 3433.878906 1472.769531 3436.109375 1474.761719 3437.878906 1476.878906 "/>
<path fill-rule="nonzero" fill="rgb(75.78125%, 93.75%, 3.529358%)" fill-opacity="1" d="M 3095.160156 1328.210938 C 3239.871094 1363.738281 3372.828125 1407.179688 3431.949219 1470.691406 L 3432.738281 1469.519531 C 3407.839844 1431.171875 3378.078125 1398.058594 3346.199219 1370.160156 L 3081.488281 1310.710938 L 3095.160156 1328.210938 "/>
<path fill-rule="nonzero" fill="rgb(21.166992%, 90.234375%, 34.104919%)" fill-opacity="1" d="M 2809.039062 1030.828125 L 2778.640625 1256.648438 C 2863.300781 1277.171875 2963.648438 1297.089844 3061.25 1320.070312 L 3081.488281 1310.710938 C 3081.488281 1310.710938 2810.621094 1039.488281 2809.039062 1030.828125 "/>
<path fill-rule="nonzero" fill="rgb(30.589294%, 85.9375%, 45.872498%)" fill-opacity="1" d="M 2652.910156 1431.070312 C 2650.578125 1440.988281 2647.570312 1450.621094 2644.121094 1459.988281 L 2690.550781 1461.578125 C 2680.679688 1450.25 2668.011719 1440.140625 2652.910156 1431.070312 "/>
<path fill-rule="nonzero" fill="rgb(30.589294%, 85.9375%, 45.872498%)" fill-opacity="1" d="M 2436.210938 1355.78125 C 2418.070312 1350.628906 2400.171875 1345.320312 2382.75 1339.738281 L 2365.648438 1352.851562 C 2387.328125 1354.738281 2410.699219 1355.800781 2436.210938 1355.78125 "/>
<path fill-rule="nonzero" fill="rgb(90.625%, 49.021912%, 64.646912%)" fill-opacity="1" d="M 2114.839844 1134.941406 L 2121.46875 1134.941406 C 2114.648438 1188.761719 2123.640625 1267.191406 2215.160156 1314.660156 L 2158.648438 1053.910156 L 2114.839844 1134.941406 "/>
<path fill-rule="nonzero" fill="rgb(90.625%, 49.021912%, 64.646912%)" fill-opacity="1" d="M 2064.988281 1386.980469 L 2064.988281 1227.128906 L 1991.71875 1362.648438 Z M 2064.988281 1386.980469 "/>
<path fill-rule="nonzero" fill="rgb(67.771912%, 49.414062%, 69.726562%)" fill-opacity="1" d="M 2215.160156 1314.660156 C 2251.148438 1333.328125 2300.058594 1347.140625 2365.648438 1352.851562 L 2382.75 1339.738281 C 2287.339844 1309.179688 2208.351562 1269.558594 2208.351562 1192.128906 C 2208.351562 1159.519531 2220.839844 1129.300781 2243.21875 1101.300781 L 2158.648438 1053.910156 L 2215.160156 1314.660156 "/>
<path fill-rule="nonzero" fill="rgb(38.426208%, 94.139099%, 65.039062%)" fill-opacity="1" d="M 2588.140625 1187.25 C 2621.160156 1213.609375 2690.96875 1235.359375 2777.691406 1256.421875 C 2792.570312 1143.070312 2808.230469 1026.339844 2809.039062 1030.828125 L 2588.140625 1187.25 "/>
<path fill-rule="nonzero" fill="rgb(38.426208%, 94.139099%, 65.039062%)" fill-opacity="1" d="M 2777.691406 1256.421875 C 2778 1256.5 2778.328125 1256.570312 2778.640625 1256.648438 L 2809.039062 1030.828125 C 2808.230469 1026.339844 2792.570312 1143.070312 2777.691406 1256.421875 "/>
<path fill-rule="nonzero" fill="rgb(89.451599%, 42.358398%, 84.764099%)" fill-opacity="1" d="M 1790.140625 955.808594 L 1991.71875 1362.648438 L 2064.988281 1227.128906 L 2064.988281 1134.941406 L 2114.839844 1134.941406 L 2158.648438 1053.910156 L 1790.140625 955.808594 "/>
<path fill-rule="nonzero" fill="rgb(81.639099%, 30.200195%, 100%)" fill-opacity="1" d="M 1991.71875 1362.648438 L 1790.140625 955.808594 L 1591.71875 1377.070312 Z M 1991.71875 1362.648438 "/>
<path fill-rule="nonzero" fill="rgb(80.46875%, 30.589294%, 100%)" fill-opacity="1" d="M 1575.96875 1033.71875 L 1541.269531 1066.488281 L 1541.269531 1368.460938 L 1591.71875 1377.070312 L 1575.96875 1033.71875 "/>
<path fill-rule="nonzero" fill="rgb(95.701599%, 36.083984%, 92.96875%)" fill-opacity="1" d="M 1575.96875 1033.71875 L 1541.269531 1019.078125 L 1541.269531 1066.488281 Z M 1575.96875 1033.71875 "/>
<path fill-rule="nonzero" fill="rgb(75.78125%, 30.200195%, 90.234375%)" fill-opacity="1" d="M 1790.140625 955.808594 L 1575.96875 1033.71875 L 1591.71875 1377.070312 Z M 1790.140625 955.808594 "/>
<path fill-rule="nonzero" fill="rgb(95.701599%, 27.050781%, 66.601562%)" fill-opacity="1" d="M 1541.269531 947.660156 L 1541.269531 1019.078125 L 1575.96875 1033.71875 Z M 1541.269531 947.660156 "/>
<path fill-rule="nonzero" fill="rgb(94.139099%, 39.208984%, 50.584412%)" fill-opacity="1" d="M 1728.679688 685.28125 L 1541.269531 685.28125 L 1541.269531 947.660156 L 1575.96875 1033.71875 L 1728.679688 685.28125 "/>
<path fill-rule="nonzero" fill="rgb(93.359375%, 59.959412%, 28.637695%)" fill-opacity="1" d="M 1991.71875 851.941406 L 1793.25 685.28125 L 1751.679688 685.28125 L 1790.140625 955.808594 L 1991.71875 851.941406 "/>
<path fill-rule="nonzero" fill="rgb(93.359375%, 39.598083%, 50.584412%)" fill-opacity="1" d="M 1991.71875 851.941406 L 1790.140625 955.808594 L 2158.648438 1053.910156 Z M 1991.71875 851.941406 "/>
<path fill-rule="nonzero" fill="rgb(62.693787%, 17.651367%, 98.826599%)" fill-opacity="1" d="M 1283.378906 2012.351562 C 1278.769531 2038.289062 1276.609375 2065.429688 1277.390625 2093.738281 L 1298.800781 2058.019531 L 1283.378906 2012.351562 "/>
<path fill-rule="nonzero" fill="rgb(96.09375%, 27.43988%, 15.281677%)" fill-opacity="1" d="M 1927.898438 685.28125 L 1793.25 685.28125 L 1991.71875 851.941406 Z M 1927.898438 685.28125 "/>
<path fill-rule="nonzero" fill="rgb(76.5625%, 62.693787%, 27.43988%)" fill-opacity="1" d="M 2388.621094 745.179688 L 1991.71875 851.941406 L 2158.648438 1053.910156 Z M 2388.621094 745.179688 "/>
<path fill-rule="nonzero" fill="rgb(100%, 49.804688%, 18.041992%)" fill-opacity="1" d="M 2039.589844 685.28125 L 1927.898438 685.28125 L 1991.71875 851.941406 Z M 2039.589844 685.28125 "/>
<path fill-rule="nonzero" fill="rgb(97.65625%, 57.226562%, 10.594177%)" fill-opacity="1" d="M 2388.621094 745.179688 L 2326.628906 685.28125 L 2039.589844 685.28125 L 1991.71875 851.941406 L 2388.621094 745.179688 "/>
<path fill-rule="nonzero" fill="rgb(94.139099%, 53.318787%, 29.417419%)" fill-opacity="1" d="M 2158.648438 1053.910156 L 2243.21875 1101.300781 C 2282.429688 1052.25 2352.410156 1010.140625 2441.109375 974.460938 L 2388.621094 745.179688 L 2158.648438 1053.910156 "/>
<path fill-rule="nonzero" fill="rgb(83.201599%, 65.818787%, 28.637695%)" fill-opacity="1" d="M 2793.988281 988.539062 C 2663.089844 1037.078125 2567.269531 1093.058594 2567.269531 1152.96875 C 2567.269531 1165.339844 2574.859375 1176.648438 2588.140625 1187.25 L 2809.039062 1030.828125 L 2793.988281 988.539062 "/>
<path fill-rule="nonzero" fill="rgb(83.201599%, 65.818787%, 28.637695%)" fill-opacity="1" d="M 2757.109375 884.929688 L 2697.601562 717.730469 C 2693.640625 716.648438 2689.609375 715.640625 2685.601562 714.609375 L 2616.199219 917.621094 C 2661.441406 905.628906 2708.710938 894.75 2757.109375 884.929688 "/>
<path fill-rule="nonzero" fill="rgb(96.09375%, 59.959412%, 35.301208%)" fill-opacity="1" d="M 2441.109375 974.460938 C 2493.769531 953.289062 2552.96875 934.371094 2616.199219 917.621094 L 2685.601562 714.609375 C 2673.058594 711.378906 2660.289062 708.390625 2647.269531 705.679688 L 2388.621094 745.179688 L 2441.109375 974.460938 "/>
<path fill-rule="nonzero" fill="rgb(98.826599%, 77.734375%, 1.567078%)" fill-opacity="1" d="M 2876.578125 960.230469 C 2847.960938 969.351562 2820.269531 978.789062 2793.988281 988.539062 L 2809.039062 1030.828125 L 2876.578125 960.230469 "/>
<path fill-rule="nonzero" fill="rgb(98.826599%, 77.734375%, 1.567078%)" fill-opacity="1" d="M 2958.671875 850.621094 C 2888.261719 791.851562 2801.238281 746.089844 2697.601562 717.730469 L 2757.109375 884.929688 C 2823.03125 871.558594 2890.988281 860.140625 2958.671875 850.621094 "/>
<path fill-rule="nonzero" fill="rgb(75.78125%, 93.75%, 3.529358%)" fill-opacity="1" d="M 3081.488281 1310.710938 L 3141.480469 1112.390625 C 3135.941406 1097.210938 3129.871094 1082.28125 3123.238281 1067.628906 L 2809.039062 1030.828125 L 3081.488281 1310.710938 "/>
<path fill-rule="nonzero" fill="rgb(90.625%, 89.84375%, 12.939453%)" fill-opacity="1" d="M 2876.578125 960.230469 L 2809.039062 1030.828125 L 3123.238281 1067.628906 C 3118.378906 1056.878906 3113.328125 1046.21875 3107.878906 1035.78125 C 3117.148438 1028.621094 3127.101562 1021.179688 3137.46875 1013.609375 L 3104.339844 897.621094 C 3027.789062 916.070312 2949.230469 937.089844 2876.578125 960.230469 "/>
<path fill-rule="nonzero" fill="rgb(96.09375%, 91.40625%, 0.392151%)" fill-opacity="1" d="M 3346.199219 1370.160156 C 3289.800781 1320.800781 3227.628906 1286.800781 3177.960938 1264.738281 C 3171.398438 1211.96875 3159.179688 1160.929688 3141.480469 1112.390625 L 3081.488281 1310.710938 L 3346.199219 1370.160156 "/>
<path fill-rule="nonzero" fill="rgb(92.96875%, 87.5%, 0%)" fill-opacity="1" d="M 3295.261719 855.429688 L 3233.859375 949.179688 C 3294.480469 912.121094 3366.128906 874.5 3448.191406 841.410156 L 3440.25 827.730469 C 3401.640625 834.628906 3351.730469 843.960938 3295.261719 855.429688 "/>
<path fill-rule="nonzero" fill="rgb(94.53125%, 78.514099%, 0%)" fill-opacity="1" d="M 3104.339844 897.621094 L 3137.46875 1013.609375 C 3165.621094 993.058594 3197.761719 971.25 3233.859375 949.179688 L 3295.261719 855.429688 C 3236.78125 867.300781 3171.371094 881.46875 3104.339844 897.621094 "/>
<path fill-rule="nonzero" fill="rgb(96.484375%, 92.96875%, 21.166992%)" fill-opacity="1" d="M 3448.191406 841.410156 C 3472.191406 831.730469 3497 822.410156 3522.769531 813.640625 C 3522.769531 813.640625 3491.429688 818.570312 3440.25 827.730469 L 3448.191406 841.410156 "/>
<path fill-rule="nonzero" fill="rgb(97.65625%, 57.226562%, 10.594177%)" fill-opacity="1" d="M 2647.269531 705.679688 C 2584 692.480469 2515.210938 685.28125 2440.601562 685.28125 L 2397.070312 685.28125 L 2388.621094 745.179688 L 2647.269531 705.679688 "/>
<path fill-rule="nonzero" fill="rgb(99.21875%, 41.184998%, 35.693359%)" fill-opacity="1" d="M 2397.070312 685.28125 L 2326.628906 685.28125 L 2388.621094 745.179688 Z M 2397.070312 685.28125 "/>
<path fill-rule="nonzero" fill="rgb(95.701599%, 27.050781%, 66.601562%)" fill-opacity="1" d="M 1790.140625 955.808594 L 1751.679688 685.28125 L 1728.679688 685.28125 L 1575.96875 1033.71875 L 1790.140625 955.808594 "/>
</svg>
